<svg xmlns="http://www.w3.org/2000/svg" xmlns:xlink="http://www.w3.org/1999/xlink" width="529" zoomAndPan="magnify" viewBox="0 0 396.75 396.749984" height="529" preserveAspectRatio="xMidYMid meet" version="1.0"><defs><g/></defs><g fill="#ff3131" fill-opacity="1"><g transform="translate(46.506896, 194.846091)"><g><path d="M 17.214844 1.058594 C 19.332031 0.265625 21.714844 -0.265625 24.363281 -0.265625 L 55.085938 -0.265625 C 59.058594 -0.265625 63.824219 -0.265625 68.328125 -0.53125 C 87.394531 -2.117188 104.871094 -9.269531 117.851562 -24.363281 C 125 -32.574219 129.238281 -41.84375 129.503906 -54.554688 C 129.765625 -66.207031 125.265625 -76.007812 118.113281 -83.953125 C 114.671875 -88.453125 110.433594 -91.894531 106.992188 -95.605469 C 109.375 -100.371094 112.816406 -104.871094 115.464844 -108.84375 C 123.410156 -124.46875 122.351562 -141.949219 113.347656 -156.78125 C 109.640625 -162.871094 104.34375 -167.371094 97.722656 -172.140625 C 86.597656 -180.085938 73.621094 -185.117188 59.851562 -185.910156 C 50.582031 -186.441406 40.785156 -186.175781 30.984375 -186.175781 C 26.484375 -186.175781 21.453125 -186.175781 16.417969 -187.765625 C 12.710938 -189.617188 6.355469 -185.910156 8.210938 -180.351562 C 10.328125 -175.582031 9.796875 -170.285156 10.328125 -164.988281 L 10.328125 -31.515625 C 10.328125 -27.277344 9.796875 -22.777344 9.796875 -18.273438 C 10.328125 -14.300781 10.59375 -10.0625 8.472656 -6.621094 C 7.679688 -3.707031 7.945312 -1.589844 10.328125 -0.265625 C 12.183594 1.589844 14.300781 1.855469 17.214844 1.058594 Z M 52.4375 -177.4375 L 55.347656 -178.230469 C 54.289062 -176.378906 54.289062 -176.378906 52.4375 -177.4375 Z M 33.367188 -177.171875 L 38.136719 -177.964844 C 37.871094 -174.789062 37.339844 -174.789062 33.367188 -177.171875 Z M 21.453125 -172.667969 C 21.1875 -172.667969 20.65625 -172.667969 20.390625 -172.933594 C 20.390625 -173.992188 20.65625 -175.582031 20.921875 -176.640625 L 21.714844 -176.640625 C 21.980469 -175.316406 22.246094 -173.730469 21.453125 -172.667969 Z M 29.132812 -171.875 L 28.601562 -173.464844 C 28.867188 -173.730469 28.867188 -173.730469 28.867188 -173.992188 C 29.132812 -173.730469 29.394531 -173.730469 29.925781 -173.464844 L 29.925781 -172.140625 C 29.660156 -172.140625 29.394531 -171.875 29.132812 -171.875 Z M 25.160156 -168.167969 C 23.570312 -167.371094 22.246094 -168.167969 21.980469 -170.019531 C 23.304688 -170.285156 24.628906 -170.550781 25.6875 -171.082031 C 26.484375 -169.757812 26.21875 -168.433594 25.160156 -168.167969 Z M 67.003906 -167.371094 C 64.882812 -167.109375 64.882812 -167.109375 64.355469 -170.816406 C 65.679688 -169.492188 66.207031 -168.433594 67.003906 -167.371094 Z M 55.347656 -163.136719 C 56.144531 -165.253906 55.347656 -168.433594 58.527344 -169.492188 C 59.851562 -170.019531 62.5 -170.285156 63.03125 -166.84375 C 60.910156 -166.84375 59.320312 -166.578125 58.261719 -166.578125 C 56.144531 -165.785156 59.851562 -162.339844 55.347656 -163.136719 Z M 46.082031 -165.253906 L 43.695312 -169.757812 C 46.082031 -168.960938 46.875 -167.636719 46.082031 -165.253906 Z M 27.808594 -163.664062 C 27.011719 -164.726562 26.484375 -165.253906 27.808594 -166.578125 C 28.601562 -167.371094 29.660156 -168.167969 30.984375 -169.226562 C 32.574219 -166.046875 32.042969 -165.253906 27.808594 -163.664062 Z M 81.832031 -162.871094 L 79.449219 -163.929688 C 80.242188 -165.253906 81.039062 -166.578125 81.832031 -168.433594 Z M 72.296875 -166.046875 C 71.238281 -166.046875 70.445312 -166.3125 69.914062 -166.578125 L 69.914062 -167.371094 C 70.710938 -167.371094 71.503906 -167.109375 72.5625 -167.109375 C 72.5625 -166.578125 72.296875 -166.3125 72.296875 -166.046875 Z M 19.863281 -161.546875 C 19.597656 -161.546875 19.597656 -162.078125 19.332031 -162.339844 C 19.863281 -162.605469 20.128906 -162.871094 20.65625 -162.871094 C 20.65625 -162.871094 20.921875 -162.339844 21.453125 -161.8125 C 20.65625 -161.8125 20.390625 -161.546875 19.863281 -161.546875 Z M 88.1875 -158.898438 C 87.921875 -158.898438 87.394531 -159.429688 87.660156 -159.691406 C 88.1875 -161.28125 89.511719 -160.488281 90.570312 -160.222656 C 90.308594 -159.164062 89.777344 -158.632812 88.1875 -158.898438 Z M 93.75 -158.367188 L 92.425781 -159.429688 L 93.484375 -159.691406 C 94.015625 -159.691406 94.28125 -159.691406 95.339844 -159.164062 C 94.542969 -158.898438 94.015625 -158.367188 93.75 -158.367188 Z M 82.628906 -155.191406 C 80.507812 -154.660156 78.917969 -156.78125 77.332031 -156.78125 L 76.535156 -157.839844 L 79.449219 -158.367188 C 80.242188 -157.574219 81.566406 -156.78125 82.628906 -155.191406 Z M 44.226562 -109.109375 L 44.226562 -152.011719 C 47.667969 -152.011719 51.113281 -152.277344 54.289062 -152.011719 C 60.910156 -151.484375 68.589844 -150.421875 74.945312 -146.453125 C 78.65625 -144.597656 81.832031 -142.480469 83.6875 -138.769531 C 87.660156 -133.738281 87.660156 -126.855469 83.15625 -121.558594 C 79.449219 -117.054688 73.886719 -114.40625 68.0625 -112.023438 C 60.644531 -109.109375 52.964844 -108.582031 44.226562 -109.109375 Z M 101.164062 -145.921875 C 99.046875 -145.921875 96.929688 -147.246094 97.191406 -148.835938 C 97.722656 -150.953125 99.3125 -150.421875 100.902344 -150.160156 C 100.902344 -148.835938 100.902344 -147.246094 101.164062 -145.921875 Z M 91.367188 -145.65625 C 90.042969 -146.1875 88.984375 -146.453125 87.394531 -146.714844 C 88.984375 -146.714844 90.570312 -148.304688 91.632812 -146.714844 C 91.632812 -146.1875 91.367188 -145.921875 91.367188 -145.65625 Z M 17.742188 -144.597656 C 18.273438 -146.453125 19.332031 -145.390625 20.128906 -145.390625 L 23.039062 -146.1875 C 23.039062 -145.65625 23.304688 -145.390625 23.304688 -144.863281 C 21.453125 -144.863281 19.597656 -144.863281 17.742188 -144.597656 Z M 95.074219 -137.445312 L 94.542969 -138.242188 L 96.664062 -140.09375 C 97.191406 -138.769531 97.457031 -138.242188 97.988281 -137.445312 Z M 102.753906 -135.59375 C 102.226562 -137.710938 102.753906 -138.242188 104.871094 -138.242188 Z M 28.335938 -129.503906 C 28.070312 -133.210938 27.808594 -134.535156 27.808594 -135.59375 C 28.867188 -136.121094 29.394531 -136.917969 30.71875 -137.445312 C 30.984375 -137.445312 30.984375 -137.183594 31.25 -137.183594 C 29.925781 -135.59375 29.132812 -134.003906 28.335938 -129.503906 Z M 104.34375 -128.179688 C 105.136719 -129.503906 105.933594 -132.945312 106.460938 -133.210938 C 107.257812 -132.945312 107.519531 -129.503906 108.050781 -128.441406 C 106.992188 -128.441406 105.667969 -128.441406 104.34375 -128.179688 Z M 22.246094 -127.914062 C 22.246094 -128.179688 21.980469 -128.441406 21.714844 -128.707031 C 22.246094 -129.238281 23.039062 -129.503906 23.570312 -129.765625 C 23.835938 -129.765625 23.835938 -129.503906 24.363281 -129.238281 C 23.570312 -128.972656 23.039062 -128.441406 22.246094 -127.914062 Z M 96.398438 -122.085938 C 95.867188 -123.410156 95.605469 -124.46875 95.074219 -125.53125 L 96.398438 -128.179688 C 96.929688 -126.855469 97.722656 -125.53125 98.253906 -124.46875 C 98.78125 -122.617188 97.722656 -122.351562 96.398438 -122.085938 Z M 21.714844 -121.558594 C 21.714844 -122.085938 21.1875 -122.617188 21.1875 -122.882812 C 21.714844 -123.941406 22.777344 -124.46875 24.628906 -122.882812 C 23.570312 -122.617188 22.777344 -122.085938 21.714844 -121.558594 Z M 91.101562 -115.203125 C 90.835938 -115.996094 90.835938 -116.527344 90.570312 -117.585938 C 91.101562 -117.585938 91.894531 -117.851562 91.894531 -117.851562 C 92.160156 -116.789062 92.160156 -115.996094 92.425781 -115.464844 C 91.894531 -115.203125 91.632812 -115.203125 91.101562 -115.203125 Z M 24.894531 -115.203125 C 25.6875 -117.851562 25.6875 -117.851562 28.601562 -116.261719 C 27.011719 -115.996094 25.953125 -115.730469 24.894531 -115.203125 Z M 22.777344 -112.554688 C 21.980469 -113.347656 21.714844 -114.140625 21.453125 -114.671875 C 21.453125 -114.9375 21.714844 -114.9375 21.714844 -115.203125 C 22.246094 -114.9375 23.039062 -114.671875 23.304688 -114.140625 C 23.570312 -113.878906 23.304688 -113.347656 23.304688 -112.816406 C 23.039062 -112.554688 23.039062 -112.554688 22.777344 -112.554688 Z M 88.453125 -109.90625 C 86.335938 -108.582031 86.335938 -108.582031 86.070312 -110.964844 C 86.863281 -110.699219 87.660156 -110.433594 88.453125 -109.90625 Z M 38.929688 -103.285156 C 37.871094 -103.546875 37.339844 -104.871094 38.136719 -106.195312 C 39.460938 -106.195312 40.253906 -105.667969 39.988281 -104.34375 C 39.988281 -104.078125 39.195312 -103.285156 38.929688 -103.285156 Z M 85.277344 -102.488281 C 85.011719 -103.285156 84.746094 -104.078125 84.746094 -104.609375 C 84.746094 -104.871094 85.277344 -105.402344 85.539062 -105.402344 C 86.070312 -105.402344 86.597656 -104.871094 86.863281 -104.609375 C 86.863281 -104.34375 86.335938 -104.078125 85.277344 -102.488281 Z M 29.925781 -96.132812 C 31.25 -97.722656 32.308594 -98.78125 33.105469 -100.371094 C 32.839844 -101.164062 32.308594 -101.960938 31.78125 -103.285156 C 35.222656 -103.019531 35.488281 -102.226562 34.164062 -96.132812 Z M 22.246094 -99.046875 C 24.894531 -99.839844 25.421875 -103.019531 28.601562 -102.753906 C 27.277344 -98.78125 27.011719 -98.78125 22.246094 -99.046875 Z M 42.636719 -100.902344 C 42.902344 -101.429688 42.902344 -101.960938 42.902344 -102.488281 L 45.019531 -101.695312 C 45.019531 -101.429688 45.019531 -101.164062 44.757812 -100.902344 Z M 90.308594 -99.3125 C 91.367188 -99.839844 92.425781 -100.902344 93.75 -101.429688 L 94.28125 -100.636719 C 93.75 -98.78125 91.894531 -98.78125 90.308594 -99.3125 Z M 64.882812 -99.578125 C 66.738281 -100.371094 68.0625 -100.636719 69.121094 -101.164062 C 69.121094 -98.253906 69.121094 -98.253906 64.882812 -99.578125 Z M 48.464844 -96.398438 C 47.140625 -99.839844 47.933594 -100.902344 52.171875 -100.902344 Z M 18.539062 -96.929688 C 20.128906 -97.191406 20.921875 -97.191406 22.246094 -97.191406 C 20.921875 -95.074219 20.128906 -95.074219 18.539062 -96.929688 Z M 83.421875 -95.339844 C 81.039062 -93.21875 76.800781 -93.75 72.5625 -97.191406 C 76.007812 -96.398438 79.714844 -96.132812 83.421875 -95.339844 Z M 38.136719 -88.453125 C 35.488281 -88.984375 34.957031 -90.042969 37.078125 -91.632812 C 37.339844 -90.570312 37.871094 -89.511719 38.136719 -88.453125 Z M 62.234375 -85.804688 C 61.175781 -88.71875 61.175781 -88.71875 64.355469 -91.101562 C 65.679688 -88.453125 63.292969 -87.921875 62.234375 -85.804688 Z M 33.367188 -85.011719 C 32.042969 -85.011719 32.042969 -85.804688 32.839844 -87.660156 C 33.367188 -86.335938 33.632812 -85.804688 34.164062 -85.011719 Z M 99.839844 -82.363281 C 98.515625 -83.15625 97.457031 -83.421875 96.664062 -83.6875 C 96.664062 -83.953125 96.398438 -84.214844 96.398438 -84.480469 C 97.988281 -85.011719 99.3125 -85.539062 101.429688 -86.070312 C 100.902344 -84.746094 100.371094 -83.953125 99.839844 -82.363281 Z M 35.222656 -77.066406 C 34.429688 -77.066406 33.898438 -77.066406 33.105469 -77.332031 C 29.660156 -79.183594 28.867188 -81.566406 28.601562 -85.277344 C 28.867188 -85.277344 29.132812 -85.539062 29.394531 -85.804688 C 29.925781 -85.011719 31.25 -83.953125 30.984375 -83.421875 C 29.925781 -80.242188 32.308594 -80.242188 34.429688 -79.183594 C 34.957031 -78.917969 36.015625 -78.65625 36.015625 -77.859375 C 36.015625 -77.59375 35.488281 -77.066406 35.222656 -77.066406 Z M 25.953125 -79.449219 C 24.628906 -80.242188 24.628906 -81.039062 25.6875 -81.832031 C 25.953125 -82.363281 27.011719 -81.832031 28.601562 -81.832031 C 27.277344 -80.507812 26.746094 -80.242188 25.953125 -79.449219 Z M 93.21875 -77.066406 C 92.160156 -77.066406 91.101562 -77.066406 91.101562 -77.332031 C 90.570312 -79.183594 88.71875 -78.917969 87.128906 -79.183594 C 89.246094 -80.242188 91.367188 -80.242188 92.957031 -78.65625 C 93.21875 -78.390625 93.21875 -77.59375 93.21875 -77.066406 Z M 44.226562 -34.164062 L 44.226562 -74.945312 C 45.285156 -75.210938 45.816406 -75.210938 46.34375 -75.210938 C 56.144531 -75.210938 66.472656 -75.210938 76.007812 -72.5625 C 81.832031 -70.972656 87.128906 -68.328125 91.367188 -63.824219 C 96.132812 -58.261719 96.398438 -50.847656 91.367188 -45.550781 C 89.777344 -43.433594 87.394531 -41.84375 85.011719 -40.519531 C 79.714844 -36.8125 72.828125 -34.691406 65.941406 -34.429688 C 58.792969 -33.898438 52.171875 -34.164062 44.226562 -34.164062 Z M 114.671875 -70.972656 C 114.140625 -70.972656 113.613281 -71.503906 113.082031 -72.035156 C 113.082031 -72.035156 113.878906 -72.5625 114.140625 -73.359375 C 114.671875 -72.5625 115.203125 -72.296875 115.464844 -71.769531 Z M 121.820312 -60.910156 C 121.027344 -62.5 120.761719 -63.03125 120.761719 -63.292969 C 121.027344 -63.558594 121.558594 -64.089844 121.820312 -64.089844 C 122.085938 -64.089844 122.617188 -63.558594 122.617188 -63.03125 C 122.617188 -62.765625 122.351562 -61.96875 121.820312 -60.910156 Z M 104.871094 -59.585938 C 106.195312 -61.707031 107.785156 -63.824219 110.167969 -63.03125 C 107.519531 -59.058594 107.257812 -58.792969 104.871094 -59.585938 Z M 114.671875 -54.554688 C 114.40625 -55.613281 113.878906 -56.410156 113.082031 -56.9375 C 113.613281 -57.203125 113.878906 -57.46875 114.140625 -57.734375 L 115.730469 -55.347656 C 115.464844 -55.347656 115.203125 -54.820312 114.671875 -54.554688 Z M 112.023438 -55.613281 C 110.167969 -53.496094 110.167969 -53.496094 105.667969 -57.203125 Z M 28.867188 -45.019531 C 29.660156 -46.875 30.191406 -47.667969 31.78125 -49.257812 C 31.78125 -46.875 31.78125 -45.285156 28.867188 -45.019531 Z M 115.730469 -43.960938 C 113.878906 -45.285156 115.464844 -45.816406 116.261719 -46.875 C 117.320312 -47.667969 118.378906 -48.199219 118.910156 -46.34375 C 117.851562 -45.285156 116.789062 -44.757812 115.730469 -43.960938 Z M 110.964844 -44.757812 C 109.90625 -43.960938 109.375 -44.226562 109.109375 -46.34375 C 109.90625 -46.34375 110.433594 -45.816406 111.230469 -45.816406 C 110.964844 -45.550781 111.230469 -45.019531 110.964844 -44.757812 Z M 29.660156 -36.8125 C 28.867188 -38.136719 28.335938 -39.722656 27.011719 -41.3125 C 29.394531 -41.046875 31.515625 -40.519531 33.898438 -40.253906 C 32.308594 -38.664062 31.25 -37.871094 29.660156 -36.8125 Z M 106.195312 -30.191406 C 102.753906 -32.308594 102.488281 -34.429688 103.019531 -37.339844 C 105.136719 -35.753906 106.195312 -33.898438 106.195312 -30.191406 Z M 35.222656 -33.632812 C 33.898438 -34.691406 33.105469 -35.222656 32.042969 -35.753906 C 34.957031 -36.8125 34.957031 -36.8125 35.222656 -33.632812 Z M 110.433594 -29.925781 C 111.230469 -30.71875 111.757812 -31.78125 112.289062 -32.839844 C 112.554688 -32.308594 112.816406 -32.308594 112.816406 -31.78125 C 112.816406 -30.191406 112.554688 -29.394531 110.433594 -29.925781 Z M 25.160156 -30.457031 L 28.335938 -30.457031 C 27.542969 -28.867188 26.746094 -28.867188 25.160156 -30.457031 Z M 100.902344 -27.011719 L 99.046875 -27.808594 C 99.046875 -27.808594 99.3125 -27.808594 99.3125 -28.070312 C 100.105469 -28.070312 100.636719 -27.808594 101.164062 -27.808594 C 101.429688 -27.808594 101.164062 -27.277344 100.902344 -27.011719 Z M 95.074219 -23.835938 C 94.808594 -25.6875 94.542969 -26.746094 95.867188 -27.542969 C 96.929688 -26.21875 96.398438 -24.894531 95.074219 -23.835938 Z M 89.777344 -22.777344 C 89.246094 -24.363281 89.246094 -25.6875 90.570312 -26.484375 C 90.835938 -26.484375 91.101562 -26.21875 91.367188 -25.953125 C 90.835938 -24.628906 90.308594 -23.835938 89.777344 -22.777344 Z M 40.519531 -22.777344 C 40.253906 -23.304688 40.253906 -24.097656 40.253906 -24.628906 L 41.3125 -24.628906 L 41.046875 -22.777344 Z M 55.347656 -23.039062 C 55.347656 -23.039062 55.085938 -23.570312 54.554688 -23.835938 C 55.085938 -24.097656 55.347656 -24.628906 55.347656 -24.628906 L 56.671875 -23.835938 C 55.878906 -23.570312 55.613281 -23.039062 55.347656 -23.039062 Z M 24.894531 -22.246094 C 24.363281 -22.246094 23.570312 -22.511719 21.980469 -23.039062 C 24.628906 -24.097656 25.421875 -24.097656 26.21875 -22.777344 C 25.6875 -22.511719 25.160156 -22.246094 24.894531 -22.246094 Z M 59.058594 -16.949219 L 58.261719 -17.214844 C 58.261719 -18.273438 58.261719 -19.332031 58.527344 -20.128906 C 59.058594 -20.128906 59.320312 -19.863281 59.851562 -19.863281 Z M 42.902344 -15.359375 C 41.3125 -17.214844 42.902344 -17.480469 43.960938 -18.804688 C 45.550781 -16.683594 43.695312 -16.15625 42.902344 -15.359375 Z M 65.414062 -13.769531 C 64.882812 -13.769531 64.617188 -14.035156 64.355469 -14.035156 C 64.882812 -15.09375 63.03125 -16.683594 66.472656 -16.949219 C 66.207031 -15.890625 65.679688 -14.832031 65.414062 -13.769531 Z M 57.46875 -6.886719 C 55.347656 -7.152344 55.613281 -8.210938 55.878906 -9.003906 C 56.144531 -9.269531 56.410156 -9.269531 56.9375 -9.535156 C 56.9375 -8.738281 57.203125 -7.945312 57.46875 -6.886719 Z M 42.636719 -5.03125 C 42.109375 -5.296875 41.578125 -5.5625 41.578125 -5.828125 C 41.84375 -6.089844 42.109375 -6.355469 42.371094 -6.886719 C 42.371094 -6.886719 42.902344 -6.621094 42.902344 -6.355469 C 42.902344 -6.089844 42.636719 -5.5625 42.636719 -5.03125 Z M 42.636719 -5.03125 "/></g></g></g><g fill="#ff3131" fill-opacity="1"><g transform="translate(166.474711, 194.846091)"><g><path d="M 99.3125 2.648438 C 105.402344 2.914062 111.757812 2.382812 118.113281 1.855469 C 125.792969 1.324219 133.476562 -1.324219 140.625 -3.972656 C 153.601562 -8.738281 164.460938 -16.15625 174.523438 -25.421875 C 180.878906 -31.25 185.644531 -38.402344 190.148438 -45.816406 C 194.121094 -52.4375 197.828125 -60.117188 199.417969 -67.796875 C 200.476562 -72.828125 201.007812 -78.390625 202.066406 -83.6875 C 203.390625 -90.308594 203.125 -96.929688 201.800781 -103.546875 C 200.476562 -110.699219 198.359375 -117.851562 195.976562 -124.734375 C 194.121094 -130.03125 191.738281 -134.796875 188.824219 -139.300781 C 183.261719 -148.835938 175.582031 -156.515625 167.636719 -163.664062 C 166.3125 -164.460938 165.519531 -165.785156 164.460938 -166.3125 C 158.632812 -169.757812 153.070312 -173.199219 146.980469 -176.113281 C 134.535156 -181.9375 121.558594 -184.585938 108.316406 -185.117188 C 102.488281 -185.382812 96.929688 -185.117188 91.367188 -184.320312 C 80.773438 -182.734375 70.445312 -179.554688 60.382812 -174.523438 C 48.992188 -168.695312 38.929688 -161.015625 30.71875 -151.484375 C 25.421875 -145.390625 20.921875 -138.769531 17.480469 -131.621094 C 11.386719 -119.171875 7.679688 -106.195312 7.945312 -92.160156 C 8.738281 -85.804688 8.738281 -79.183594 9.796875 -73.09375 C 11.386719 -64.617188 14.035156 -56.144531 18.539062 -48.464844 C 24.628906 -38.136719 31.515625 -29.132812 40.519531 -21.453125 C 47.933594 -15.09375 55.878906 -9.796875 64.882812 -5.828125 C 75.742188 -1.058594 87.394531 2.117188 99.3125 2.648438 Z M 110.699219 -171.082031 L 109.90625 -172.140625 L 112.023438 -173.730469 C 112.289062 -173.199219 112.816406 -172.667969 113.082031 -172.40625 C 112.289062 -171.609375 111.492188 -171.34375 110.699219 -171.082031 Z M 132.414062 -167.636719 C 130.5625 -167.636719 129.503906 -167.636719 128.441406 -167.902344 C 127.648438 -167.902344 127.382812 -168.167969 127.117188 -168.695312 L 128.179688 -169.492188 C 129.238281 -170.019531 131.621094 -169.492188 132.414062 -167.636719 Z M 68.0625 -164.726562 L 68.0625 -167.109375 C 69.386719 -167.636719 69.914062 -168.167969 70.710938 -168.960938 C 71.238281 -169.226562 72.035156 -169.226562 72.5625 -169.492188 C 72.5625 -168.695312 72.5625 -167.636719 72.296875 -167.371094 C 70.972656 -166.578125 69.914062 -166.046875 68.0625 -164.726562 Z M 140.359375 -164.726562 L 138.242188 -165.785156 C 138.242188 -166.046875 139.035156 -166.84375 139.300781 -167.902344 C 139.832031 -166.84375 140.359375 -166.3125 140.890625 -165.519531 C 140.625 -165.519531 140.625 -165.253906 140.359375 -164.726562 Z M 121.292969 -163.929688 C 119.171875 -164.726562 119.4375 -166.046875 119.96875 -166.84375 C 119.96875 -167.109375 120.761719 -166.84375 120.761719 -166.84375 C 121.292969 -166.046875 121.292969 -165.253906 121.292969 -163.929688 Z M 81.304688 -163.929688 C 81.039062 -163.929688 80.773438 -164.726562 80.242188 -165.519531 L 84.214844 -165.519531 L 84.214844 -164.726562 Z M 112.816406 -160.222656 C 110.964844 -162.605469 107.519531 -159.957031 106.195312 -162.871094 L 111.230469 -164.460938 C 111.757812 -164.726562 112.554688 -164.460938 113.347656 -164.460938 L 113.347656 -162.339844 C 113.347656 -161.8125 113.082031 -161.015625 112.816406 -160.222656 Z M 127.382812 -159.957031 L 126.855469 -160.488281 C 127.382812 -161.28125 128.179688 -162.078125 128.972656 -163.402344 C 129.238281 -162.078125 129.765625 -161.015625 129.503906 -160.753906 C 128.972656 -160.222656 128.179688 -160.222656 127.382812 -159.957031 Z M 76.269531 -159.691406 C 76.007812 -159.691406 75.742188 -159.957031 75.476562 -160.222656 C 75.476562 -160.488281 75.742188 -160.753906 76.007812 -161.015625 L 77.332031 -162.871094 C 77.332031 -162.871094 77.59375 -162.605469 77.859375 -162.605469 C 78.125 -161.8125 78.390625 -160.753906 78.125 -160.222656 C 78.125 -159.691406 77.066406 -159.691406 76.269531 -159.691406 Z M 158.632812 -154.660156 C 157.308594 -153.867188 156.78125 -155.191406 156.515625 -156.25 C 156.25 -157.574219 157.574219 -158.105469 158.632812 -158.367188 Z M 142.480469 -151.746094 L 138.769531 -152.542969 L 141.15625 -154.925781 Z M 103.546875 -32.839844 C 94.808594 -33.632812 86.335938 -34.164062 78.390625 -38.402344 C 67.265625 -44.226562 58.261719 -52.4375 51.378906 -63.292969 C 47.933594 -68.855469 45.816406 -75.210938 44.492188 -81.832031 C 43.167969 -88.453125 42.902344 -95.339844 45.019531 -101.960938 C 46.082031 -106.460938 46.875 -110.964844 49.257812 -115.203125 C 52.171875 -120.234375 55.085938 -125 58.792969 -129.238281 C 67.796875 -139.300781 79.449219 -145.921875 92.691406 -148.304688 C 96.929688 -149.101562 101.164062 -149.628906 103.8125 -149.894531 C 114.671875 -149.628906 123.410156 -148.304688 131.886719 -144.332031 C 139.832031 -140.625 146.1875 -135.0625 152.277344 -128.707031 C 157.574219 -123.144531 161.8125 -116.527344 163.929688 -108.582031 C 164.988281 -104.609375 165.519531 -100.105469 166.3125 -95.867188 C 167.636719 -88.453125 166.578125 -81.039062 164.195312 -74.152344 C 161.8125 -67.003906 158.105469 -60.644531 153.335938 -54.820312 C 144.863281 -44.226562 133.738281 -37.871094 120.761719 -34.691406 C 115.203125 -33.105469 109.109375 -32.308594 103.546875 -32.839844 Z M 47.667969 -147.777344 C 47.40625 -148.304688 47.667969 -149.101562 47.667969 -149.894531 C 48.464844 -149.628906 49.523438 -149.101562 50.847656 -148.835938 C 49.789062 -146.714844 48.730469 -146.714844 47.667969 -147.777344 Z M 54.027344 -146.453125 C 53.761719 -146.714844 53.496094 -146.714844 53.496094 -146.980469 C 53.761719 -148.039062 54.554688 -148.835938 55.085938 -149.363281 C 55.085938 -149.628906 55.878906 -149.101562 56.671875 -148.835938 C 55.613281 -147.777344 54.820312 -146.980469 54.027344 -146.453125 Z M 160.753906 -145.921875 C 160.488281 -145.921875 159.957031 -146.453125 159.957031 -146.453125 C 159.957031 -146.980469 160.222656 -147.777344 160.488281 -148.039062 C 161.8125 -149.363281 163.402344 -148.304688 164.726562 -146.453125 C 162.871094 -146.1875 161.8125 -145.921875 160.753906 -145.921875 Z M 44.757812 -145.390625 C 42.636719 -145.390625 42.371094 -146.453125 42.109375 -148.304688 C 44.492188 -148.570312 44.757812 -146.980469 44.757812 -145.390625 Z M 171.875 -145.390625 C 170.816406 -145.128906 169.492188 -145.128906 169.492188 -146.714844 C 169.492188 -146.980469 170.550781 -148.304688 170.816406 -148.039062 C 171.875 -147.777344 172.40625 -146.714844 171.875 -145.390625 Z M 153.335938 -142.742188 C 152.011719 -143.539062 151.484375 -144.066406 151.21875 -144.597656 C 150.953125 -144.863281 150.421875 -145.390625 150.421875 -145.65625 C 150.421875 -145.921875 150.953125 -146.453125 151.21875 -146.453125 C 151.484375 -146.453125 152.011719 -146.1875 152.277344 -145.921875 C 153.070312 -145.65625 153.601562 -145.390625 153.867188 -145.128906 C 154.132812 -144.863281 154.394531 -144.597656 154.394531 -144.332031 Z M 57.46875 -140.625 C 56.9375 -141.949219 56.410156 -143.273438 55.613281 -144.863281 C 57.203125 -144.066406 58.792969 -143.273438 60.117188 -142.480469 Z M 38.402344 -140.625 L 45.019531 -142.480469 C 44.757812 -140.09375 41.578125 -139.035156 38.402344 -140.625 Z M 40.785156 -133.738281 C 40.519531 -134.796875 40.519531 -135.859375 39.988281 -136.652344 C 40.519531 -137.183594 40.785156 -137.183594 40.785156 -137.445312 L 43.167969 -134.003906 C 42.371094 -134.003906 41.84375 -134.003906 40.785156 -133.738281 Z M 159.691406 -133.738281 L 158.632812 -135.859375 C 158.898438 -136.121094 159.691406 -136.121094 159.957031 -136.386719 L 160.753906 -133.738281 Z M 37.078125 -131.355469 C 34.691406 -133.738281 32.839844 -134.535156 30.457031 -133.210938 C 30.71875 -134.003906 30.984375 -135.0625 31.515625 -135.59375 C 32.042969 -135.859375 33.367188 -135.59375 34.164062 -135.59375 C 34.429688 -135.328125 34.691406 -135.0625 34.957031 -135.0625 C 37.605469 -134.535156 37.605469 -134.269531 37.078125 -131.355469 Z M 45.550781 -128.972656 C 45.019531 -132.152344 45.285156 -132.414062 47.933594 -131.886719 C 47.40625 -131.089844 46.34375 -130.296875 45.550781 -128.972656 Z M 28.867188 -119.171875 C 27.808594 -120.234375 27.011719 -121.027344 25.953125 -121.820312 C 25.953125 -122.085938 25.953125 -123.144531 26.484375 -123.144531 C 28.601562 -123.941406 27.542969 -125.265625 27.277344 -126.855469 C 27.011719 -127.117188 27.542969 -127.648438 27.808594 -128.441406 C 28.601562 -127.117188 29.925781 -125.53125 30.191406 -124.46875 C 30.191406 -123.144531 29.394531 -121.558594 28.867188 -119.171875 Z M 39.195312 -121.558594 L 39.195312 -123.144531 L 42.371094 -123.144531 L 42.371094 -121.820312 C 41.578125 -121.558594 40.519531 -121.558594 39.195312 -121.558594 Z M 188.292969 -118.113281 C 185.382812 -119.703125 185.117188 -119.96875 186.441406 -122.085938 C 186.96875 -120.761719 187.765625 -119.96875 188.292969 -118.113281 Z M 177.964844 -113.347656 C 176.90625 -114.40625 176.113281 -115.203125 175.582031 -116.527344 L 176.378906 -117.054688 L 180.085938 -114.140625 C 179.289062 -113.878906 178.230469 -113.082031 177.964844 -113.347656 Z M 24.894531 -112.023438 C 23.304688 -112.816406 21.453125 -113.613281 19.863281 -114.140625 C 21.453125 -115.996094 23.039062 -115.996094 24.363281 -114.671875 C 24.894531 -114.140625 25.160156 -113.347656 25.421875 -112.816406 C 25.160156 -112.554688 25.160156 -112.023438 24.894531 -112.023438 Z M 177.4375 -99.3125 C 176.90625 -99.578125 176.113281 -100.105469 176.378906 -100.371094 C 176.378906 -100.902344 176.90625 -101.164062 177.703125 -102.226562 C 178.230469 -101.164062 178.761719 -100.636719 178.761719 -100.371094 C 178.496094 -99.839844 177.964844 -99.578125 177.4375 -99.3125 Z M 29.925781 -97.191406 C 28.070312 -97.191406 27.808594 -97.191406 27.808594 -99.839844 C 28.601562 -99.046875 30.457031 -99.046875 29.925781 -97.191406 Z M 187.234375 -92.160156 C 186.96875 -92.691406 186.707031 -93.21875 186.96875 -93.75 C 187.234375 -94.28125 188.292969 -95.074219 189.089844 -96.132812 C 188.824219 -94.542969 188.824219 -93.484375 188.558594 -92.691406 C 188.558594 -92.425781 187.765625 -92.425781 187.234375 -92.160156 Z M 178.761719 -92.691406 C 178.496094 -93.75 177.703125 -95.339844 177.964844 -95.605469 C 179.027344 -96.132812 180.351562 -96.132812 181.410156 -94.28125 C 180.351562 -93.75 179.820312 -93.21875 178.761719 -92.691406 Z M 182.46875 -91.632812 L 184.320312 -95.339844 C 184.851562 -92.160156 184.585938 -91.101562 182.46875 -91.632812 Z M 28.070312 -89.777344 C 27.808594 -90.042969 28.070312 -91.632812 28.601562 -91.894531 C 30.191406 -92.691406 30.71875 -91.632812 31.25 -90.308594 C 30.191406 -89.511719 28.867188 -88.453125 28.070312 -89.777344 Z M 181.410156 -87.128906 C 180.085938 -88.1875 179.289062 -88.453125 178.496094 -88.984375 C 178.230469 -89.246094 177.964844 -89.777344 177.964844 -90.042969 C 178.230469 -90.570312 178.761719 -91.101562 179.289062 -91.101562 C 180.085938 -91.632812 181.144531 -91.101562 182.203125 -91.101562 Z M 174.789062 -83.953125 C 175.054688 -85.539062 175.054688 -86.863281 175.316406 -88.1875 C 176.90625 -86.070312 176.90625 -85.539062 174.789062 -83.953125 Z M 24.363281 -82.628906 C 23.835938 -83.6875 23.304688 -85.277344 22.246094 -86.597656 C 23.304688 -86.597656 24.097656 -86.863281 24.628906 -86.597656 C 25.953125 -85.277344 24.894531 -83.6875 24.363281 -82.628906 Z M 182.996094 -81.566406 C 182.996094 -84.746094 184.320312 -86.597656 186.441406 -86.070312 C 186.707031 -83.6875 184.320312 -83.15625 182.996094 -81.566406 Z M 174.257812 -74.152344 C 172.667969 -74.152344 172.140625 -74.945312 172.667969 -76.007812 C 173.992188 -77.59375 173.730469 -78.65625 172.40625 -79.714844 C 172.40625 -79.714844 172.40625 -79.980469 172.667969 -80.242188 C 173.199219 -80.507812 173.992188 -80.507812 174.789062 -80.507812 C 174.523438 -78.390625 174.523438 -76.269531 174.257812 -74.152344 Z M 19.597656 -75.742188 C 19.332031 -75.742188 18.539062 -76.007812 18.273438 -76.269531 L 21.453125 -79.714844 C 21.714844 -79.980469 22.246094 -79.980469 22.777344 -79.980469 C 23.570312 -79.449219 24.363281 -78.65625 24.628906 -77.859375 C 24.894531 -77.59375 23.835938 -76.007812 23.304688 -76.007812 C 21.714844 -76.269531 20.65625 -76.800781 19.597656 -75.742188 Z M 32.042969 -74.945312 C 29.394531 -73.886719 28.601562 -75.476562 27.542969 -76.269531 C 27.277344 -76.269531 27.542969 -76.800781 27.808594 -77.332031 C 27.808594 -77.59375 28.335938 -77.59375 28.335938 -77.59375 C 29.394531 -76.535156 30.71875 -75.742188 32.042969 -74.945312 Z M 32.042969 -70.445312 C 31.515625 -70.972656 30.984375 -71.238281 30.71875 -71.769531 C 30.71875 -72.035156 31.515625 -72.5625 32.042969 -73.359375 C 32.574219 -72.5625 33.367188 -72.035156 33.367188 -71.769531 C 32.839844 -71.238281 32.308594 -70.972656 32.042969 -70.445312 Z M 27.542969 -67.796875 L 25.6875 -70.445312 C 26.746094 -70.710938 27.542969 -70.972656 28.867188 -71.769531 C 28.601562 -69.914062 28.335938 -68.855469 28.335938 -67.796875 Z M 178.761719 -67.53125 L 178.230469 -68.328125 L 180.878906 -70.710938 C 181.144531 -70.710938 181.9375 -70.710938 181.9375 -70.445312 C 181.9375 -69.914062 181.9375 -69.121094 181.671875 -68.855469 C 180.878906 -68.328125 179.554688 -68.0625 178.761719 -67.53125 Z M 190.679688 -65.941406 C 188.03125 -65.679688 188.03125 -65.941406 188.824219 -68.589844 Z M 23.835938 -64.617188 L 29.394531 -65.414062 C 29.132812 -62.765625 27.011719 -62.5 23.835938 -64.617188 Z M 19.863281 -63.292969 L 19.597656 -63.558594 C 19.863281 -64.089844 19.863281 -64.882812 20.390625 -65.148438 C 20.65625 -65.414062 21.453125 -64.882812 21.980469 -64.617188 L 21.980469 -64.089844 Z M 29.925781 -51.113281 C 30.191406 -51.640625 30.191406 -52.171875 30.457031 -52.4375 C 32.574219 -54.554688 34.957031 -54.554688 37.339844 -54.820312 C 37.605469 -54.820312 37.871094 -53.761719 38.136719 -53.761719 C 35.488281 -52.964844 33.367188 -51.90625 31.25 -51.113281 Z M 165.519531 -49.257812 C 164.988281 -51.90625 165.519531 -54.289062 167.371094 -54.820312 C 167.636719 -54.820312 168.695312 -54.027344 168.695312 -54.027344 C 167.902344 -52.171875 166.84375 -50.847656 165.519531 -49.257812 Z M 41.046875 -42.371094 C 40.785156 -42.371094 40.519531 -42.636719 40.519531 -42.902344 C 40.519531 -43.167969 40.785156 -43.433594 41.046875 -43.960938 C 41.3125 -44.492188 42.109375 -45.285156 42.109375 -46.082031 C 41.84375 -47.140625 42.109375 -47.933594 43.167969 -48.199219 C 43.960938 -48.199219 44.757812 -47.40625 45.285156 -47.140625 L 41.84375 -42.902344 Z M 175.316406 -43.433594 L 171.609375 -47.140625 C 174.523438 -46.875 175.316406 -46.082031 175.316406 -43.433594 Z M 157.308594 -41.578125 L 157.308594 -42.636719 L 159.164062 -43.695312 C 159.957031 -43.695312 160.488281 -43.433594 160.753906 -43.167969 C 160.753906 -42.902344 160.488281 -41.84375 160.222656 -41.84375 C 159.164062 -41.578125 158.367188 -41.578125 157.308594 -41.578125 Z M 161.28125 -34.429688 C 160.753906 -35.222656 159.957031 -36.015625 159.691406 -36.8125 C 159.164062 -36.8125 160.222656 -37.605469 160.488281 -37.871094 L 162.605469 -35.753906 C 162.078125 -35.222656 161.546875 -34.429688 161.28125 -34.429688 Z M 48.730469 -34.429688 C 47.933594 -34.691406 46.875 -35.753906 46.34375 -36.546875 L 48.464844 -37.605469 L 50.847656 -35.753906 C 50.054688 -35.222656 49.257812 -34.164062 48.730469 -34.429688 Z M 145.65625 -30.984375 C 145.65625 -30.984375 145.128906 -31.25 145.128906 -31.78125 L 146.453125 -32.839844 C 147.246094 -32.839844 147.777344 -32.574219 148.570312 -32.574219 L 148.570312 -31.78125 C 147.511719 -31.25 146.714844 -30.984375 145.65625 -30.984375 Z M 151.484375 -25.953125 L 151.484375 -30.71875 C 154.132812 -28.867188 154.132812 -27.277344 151.484375 -25.953125 Z M 65.941406 -22.511719 C 65.679688 -22.511719 65.148438 -22.511719 65.148438 -22.777344 C 63.558594 -24.363281 63.292969 -24.363281 61.96875 -23.039062 C 61.707031 -22.777344 60.644531 -22.777344 60.382812 -22.777344 C 59.058594 -23.835938 57.996094 -25.160156 56.671875 -26.21875 C 56.410156 -26.746094 56.410156 -27.277344 56.144531 -28.601562 L 60.644531 -25.6875 C 61.707031 -26.484375 63.03125 -26.746094 61.96875 -28.601562 C 61.707031 -28.867188 62.234375 -29.660156 62.5 -29.925781 C 62.5 -30.191406 63.292969 -30.191406 63.292969 -30.191406 C 63.558594 -29.660156 63.558594 -29.132812 63.824219 -28.867188 C 64.089844 -28.335938 64.089844 -27.011719 64.355469 -27.011719 C 67.003906 -26.746094 65.679688 -24.363281 66.472656 -23.304688 C 66.472656 -23.039062 66.207031 -22.511719 65.941406 -22.511719 Z M 73.09375 -25.421875 C 72.035156 -25.6875 70.972656 -26.21875 70.179688 -26.746094 C 71.238281 -28.867188 72.828125 -27.808594 73.886719 -27.011719 C 74.152344 -27.011719 74.417969 -26.21875 74.152344 -25.953125 C 73.886719 -25.6875 73.359375 -25.421875 73.09375 -25.421875 Z M 127.382812 -24.363281 C 127.117188 -25.421875 126.589844 -26.484375 126.058594 -27.277344 L 126.589844 -27.808594 C 127.117188 -27.542969 128.707031 -27.542969 128.707031 -27.277344 L 128.441406 -24.363281 Z M 135.859375 -18.007812 C 133.738281 -21.1875 133.738281 -21.453125 136.386719 -23.039062 L 138.242188 -25.421875 C 139.832031 -24.097656 139.300781 -22.777344 137.976562 -22.246094 C 137.183594 -21.714844 136.652344 -21.1875 136.917969 -19.863281 C 136.917969 -19.332031 136.121094 -18.539062 135.859375 -18.007812 Z M 83.6875 -20.390625 C 83.421875 -21.1875 83.421875 -21.714844 83.421875 -22.511719 C 84.480469 -22.511719 85.539062 -22.511719 86.863281 -22.246094 L 86.863281 -20.390625 Z M 141.417969 -17.214844 C 140.359375 -18.273438 139.300781 -19.066406 137.976562 -19.597656 C 137.976562 -21.453125 139.300781 -21.714844 140.359375 -21.1875 C 141.683594 -20.390625 141.683594 -19.066406 141.417969 -17.214844 Z M 146.453125 -18.273438 L 145.921875 -19.066406 C 146.980469 -19.597656 148.039062 -20.128906 148.835938 -21.1875 C 149.363281 -20.390625 149.628906 -20.128906 149.628906 -19.863281 Z M 125.792969 -16.417969 C 125.265625 -17.742188 125 -18.539062 124.207031 -19.332031 C 125.53125 -19.597656 126.324219 -20.128906 127.382812 -20.390625 C 127.382812 -20.390625 127.648438 -20.128906 127.648438 -19.863281 Z M 110.964844 -16.15625 C 110.167969 -16.15625 109.375 -16.683594 109.375 -16.949219 C 109.640625 -18.539062 110.699219 -19.066406 112.023438 -18.539062 C 112.554688 -17.214844 112.289062 -16.417969 110.964844 -16.15625 Z M 122.617188 -11.917969 C 121.820312 -12.183594 120.761719 -12.710938 120.234375 -12.976562 C 120.761719 -13.507812 121.558594 -14.300781 122.085938 -14.566406 L 123.410156 -12.445312 Z M 80.242188 -11.121094 C 81.566406 -13.507812 81.832031 -13.507812 83.6875 -13.507812 C 83.953125 -11.386719 83.421875 -10.859375 80.242188 -11.121094 Z M 109.640625 -7.679688 C 107.785156 -6.355469 106.195312 -7.414062 104.871094 -11.121094 C 107.519531 -11.386719 109.109375 -9.796875 109.640625 -7.679688 Z M 113.347656 -6.089844 C 111.757812 -8.738281 114.9375 -9.003906 115.203125 -10.859375 C 115.730469 -9.796875 116.261719 -9.535156 117.054688 -8.738281 C 115.730469 -7.945312 114.671875 -7.152344 113.347656 -6.089844 Z M 113.347656 -6.089844 "/></g></g></g><g fill="#ff3131" fill-opacity="1"><g transform="translate(388.241984, 202.135614)"><g><path d="M -99.3125 -2.648438 C -105.402344 -2.914062 -111.757812 -2.382812 -118.113281 -1.855469 C -125.792969 -1.324219 -133.476562 1.324219 -140.625 3.972656 C -153.601562 8.738281 -164.460938 16.15625 -174.523438 25.421875 C -180.878906 31.25 -185.644531 38.402344 -190.148438 45.816406 C -194.121094 52.4375 -197.828125 60.117188 -199.417969 67.796875 C -200.476562 72.828125 -201.007812 78.390625 -202.066406 83.6875 C -203.390625 90.308594 -203.125 96.929688 -201.800781 103.546875 C -200.476562 110.699219 -198.359375 117.851562 -195.976562 124.734375 C -194.121094 130.03125 -191.738281 134.796875 -188.824219 139.300781 C -183.261719 148.835938 -175.582031 156.515625 -167.636719 163.664062 C -166.3125 164.460938 -165.519531 165.785156 -164.460938 166.3125 C -158.632812 169.757812 -153.070312 173.199219 -146.980469 176.113281 C -134.535156 181.9375 -121.558594 184.585938 -108.316406 185.117188 C -102.488281 185.382812 -96.929688 185.117188 -91.367188 184.320312 C -80.773438 182.734375 -70.445312 179.554688 -60.382812 174.523438 C -48.992188 168.695312 -38.929688 161.015625 -30.71875 151.484375 C -25.421875 145.390625 -20.921875 138.769531 -17.480469 131.621094 C -11.386719 119.171875 -7.679688 106.195312 -7.945312 92.160156 C -8.738281 85.804688 -8.738281 79.183594 -9.796875 73.09375 C -11.386719 64.617188 -14.035156 56.144531 -18.539062 48.464844 C -24.628906 38.136719 -31.515625 29.132812 -40.519531 21.453125 C -47.933594 15.09375 -55.878906 9.796875 -64.882812 5.828125 C -75.742188 1.058594 -87.394531 -2.117188 -99.3125 -2.648438 Z M -110.699219 171.082031 L -109.90625 172.140625 L -112.023438 173.730469 C -112.289062 173.199219 -112.816406 172.667969 -113.082031 172.40625 C -112.289062 171.609375 -111.492188 171.34375 -110.699219 171.082031 Z M -132.414062 167.636719 C -130.5625 167.636719 -129.503906 167.636719 -128.441406 167.902344 C -127.648438 167.902344 -127.382812 168.167969 -127.117188 168.695312 L -128.179688 169.492188 C -129.238281 170.019531 -131.621094 169.492188 -132.414062 167.636719 Z M -68.0625 164.726562 L -68.0625 167.109375 C -69.386719 167.636719 -69.914062 168.167969 -70.710938 168.960938 C -71.238281 169.226562 -72.035156 169.226562 -72.5625 169.492188 C -72.5625 168.695312 -72.5625 167.636719 -72.296875 167.371094 C -70.972656 166.578125 -69.914062 166.046875 -68.0625 164.726562 Z M -140.359375 164.726562 L -138.242188 165.785156 C -138.242188 166.046875 -139.035156 166.84375 -139.300781 167.902344 C -139.832031 166.84375 -140.359375 166.3125 -140.890625 165.519531 C -140.625 165.519531 -140.625 165.253906 -140.359375 164.726562 Z M -121.292969 163.929688 C -119.171875 164.726562 -119.4375 166.046875 -119.96875 166.84375 C -119.96875 167.109375 -120.761719 166.84375 -120.761719 166.84375 C -121.292969 166.046875 -121.292969 165.253906 -121.292969 163.929688 Z M -81.304688 163.929688 C -81.039062 163.929688 -80.773438 164.726562 -80.242188 165.519531 L -84.214844 165.519531 L -84.214844 164.726562 Z M -112.816406 160.222656 C -110.964844 162.605469 -107.519531 159.957031 -106.195312 162.871094 L -111.230469 164.460938 C -111.757812 164.726562 -112.554688 164.460938 -113.347656 164.460938 L -113.347656 162.339844 C -113.347656 161.8125 -113.082031 161.015625 -112.816406 160.222656 Z M -127.382812 159.957031 L -126.855469 160.488281 C -127.382812 161.28125 -128.179688 162.078125 -128.972656 163.402344 C -129.238281 162.078125 -129.765625 161.015625 -129.503906 160.753906 C -128.972656 160.222656 -128.179688 160.222656 -127.382812 159.957031 Z M -76.269531 159.691406 C -76.007812 159.691406 -75.742188 159.957031 -75.476562 160.222656 C -75.476562 160.488281 -75.742188 160.753906 -76.007812 161.015625 L -77.332031 162.871094 C -77.332031 162.871094 -77.59375 162.605469 -77.859375 162.605469 C -78.125 161.8125 -78.390625 160.753906 -78.125 160.222656 C -78.125 159.691406 -77.066406 159.691406 -76.269531 159.691406 Z M -158.632812 154.660156 C -157.308594 153.867188 -156.78125 155.191406 -156.515625 156.25 C -156.25 157.574219 -157.574219 158.105469 -158.632812 158.367188 Z M -142.480469 151.746094 L -138.769531 152.542969 L -141.15625 154.925781 Z M -103.546875 32.839844 C -94.808594 33.632812 -86.335938 34.164062 -78.390625 38.402344 C -67.265625 44.226562 -58.261719 52.4375 -51.378906 63.292969 C -47.933594 68.855469 -45.816406 75.210938 -44.492188 81.832031 C -43.167969 88.453125 -42.902344 95.339844 -45.019531 101.960938 C -46.082031 106.460938 -46.875 110.964844 -49.257812 115.203125 C -52.171875 120.234375 -55.085938 125 -58.792969 129.238281 C -67.796875 139.300781 -79.449219 145.921875 -92.691406 148.304688 C -96.929688 149.101562 -101.164062 149.628906 -103.8125 149.894531 C -114.671875 149.628906 -123.410156 148.304688 -131.886719 144.332031 C -139.832031 140.625 -146.1875 135.0625 -152.277344 128.707031 C -157.574219 123.144531 -161.8125 116.527344 -163.929688 108.582031 C -164.988281 104.609375 -165.519531 100.105469 -166.3125 95.867188 C -167.636719 88.453125 -166.578125 81.039062 -164.195312 74.152344 C -161.8125 67.003906 -158.105469 60.644531 -153.335938 54.820312 C -144.863281 44.226562 -133.738281 37.871094 -120.761719 34.691406 C -115.203125 33.105469 -109.109375 32.308594 -103.546875 32.839844 Z M -47.667969 147.777344 C -47.40625 148.304688 -47.667969 149.101562 -47.667969 149.894531 C -48.464844 149.628906 -49.523438 149.101562 -50.847656 148.835938 C -49.789062 146.714844 -48.730469 146.714844 -47.667969 147.777344 Z M -54.027344 146.453125 C -53.761719 146.714844 -53.496094 146.714844 -53.496094 146.980469 C -53.761719 148.039062 -54.554688 148.835938 -55.085938 149.363281 C -55.085938 149.628906 -55.878906 149.101562 -56.671875 148.835938 C -55.613281 147.777344 -54.820312 146.980469 -54.027344 146.453125 Z M -160.753906 145.921875 C -160.488281 145.921875 -159.957031 146.453125 -159.957031 146.453125 C -159.957031 146.980469 -160.222656 147.777344 -160.488281 148.039062 C -161.8125 149.363281 -163.402344 148.304688 -164.726562 146.453125 C -162.871094 146.1875 -161.8125 145.921875 -160.753906 145.921875 Z M -44.757812 145.390625 C -42.636719 145.390625 -42.371094 146.453125 -42.109375 148.304688 C -44.492188 148.570312 -44.757812 146.980469 -44.757812 145.390625 Z M -171.875 145.390625 C -170.816406 145.128906 -169.492188 145.128906 -169.492188 146.714844 C -169.492188 146.980469 -170.550781 148.304688 -170.816406 148.039062 C -171.875 147.777344 -172.40625 146.714844 -171.875 145.390625 Z M -153.335938 142.742188 C -152.011719 143.539062 -151.484375 144.066406 -151.21875 144.597656 C -150.953125 144.863281 -150.421875 145.390625 -150.421875 145.65625 C -150.421875 145.921875 -150.953125 146.453125 -151.21875 146.453125 C -151.484375 146.453125 -152.011719 146.1875 -152.277344 145.921875 C -153.070312 145.65625 -153.601562 145.390625 -153.867188 145.128906 C -154.132812 144.863281 -154.394531 144.597656 -154.394531 144.332031 Z M -57.46875 140.625 C -56.9375 141.949219 -56.410156 143.273438 -55.613281 144.863281 C -57.203125 144.066406 -58.792969 143.273438 -60.117188 142.480469 Z M -38.402344 140.625 L -45.019531 142.480469 C -44.757812 140.09375 -41.578125 139.035156 -38.402344 140.625 Z M -40.785156 133.738281 C -40.519531 134.796875 -40.519531 135.859375 -39.988281 136.652344 C -40.519531 137.183594 -40.785156 137.183594 -40.785156 137.445312 L -43.167969 134.003906 C -42.371094 134.003906 -41.84375 134.003906 -40.785156 133.738281 Z M -159.691406 133.738281 L -158.632812 135.859375 C -158.898438 136.121094 -159.691406 136.121094 -159.957031 136.386719 L -160.753906 133.738281 Z M -37.078125 131.355469 C -34.691406 133.738281 -32.839844 134.535156 -30.457031 133.210938 C -30.71875 134.003906 -30.984375 135.0625 -31.515625 135.59375 C -32.042969 135.859375 -33.367188 135.59375 -34.164062 135.59375 C -34.429688 135.328125 -34.691406 135.0625 -34.957031 135.0625 C -37.605469 134.535156 -37.605469 134.269531 -37.078125 131.355469 Z M -45.550781 128.972656 C -45.019531 132.152344 -45.285156 132.414062 -47.933594 131.886719 C -47.40625 131.089844 -46.34375 130.296875 -45.550781 128.972656 Z M -28.867188 119.171875 C -27.808594 120.234375 -27.011719 121.027344 -25.953125 121.820312 C -25.953125 122.085938 -25.953125 123.144531 -26.484375 123.144531 C -28.601562 123.941406 -27.542969 125.265625 -27.277344 126.855469 C -27.011719 127.117188 -27.542969 127.648438 -27.808594 128.441406 C -28.601562 127.117188 -29.925781 125.53125 -30.191406 124.46875 C -30.191406 123.144531 -29.394531 121.558594 -28.867188 119.171875 Z M -39.195312 121.558594 L -39.195312 123.144531 L -42.371094 123.144531 L -42.371094 121.820312 C -41.578125 121.558594 -40.519531 121.558594 -39.195312 121.558594 Z M -188.292969 118.113281 C -185.382812 119.703125 -185.117188 119.96875 -186.441406 122.085938 C -186.96875 120.761719 -187.765625 119.96875 -188.292969 118.113281 Z M -177.964844 113.347656 C -176.90625 114.40625 -176.113281 115.203125 -175.582031 116.527344 L -176.378906 117.054688 L -180.085938 114.140625 C -179.289062 113.878906 -178.230469 113.082031 -177.964844 113.347656 Z M -24.894531 112.023438 C -23.304688 112.816406 -21.453125 113.613281 -19.863281 114.140625 C -21.453125 115.996094 -23.039062 115.996094 -24.363281 114.671875 C -24.894531 114.140625 -25.160156 113.347656 -25.421875 112.816406 C -25.160156 112.554688 -25.160156 112.023438 -24.894531 112.023438 Z M -177.4375 99.3125 C -176.90625 99.578125 -176.113281 100.105469 -176.378906 100.371094 C -176.378906 100.902344 -176.90625 101.164062 -177.703125 102.226562 C -178.230469 101.164062 -178.761719 100.636719 -178.761719 100.371094 C -178.496094 99.839844 -177.964844 99.578125 -177.4375 99.3125 Z M -29.925781 97.191406 C -28.070312 97.191406 -27.808594 97.191406 -27.808594 99.839844 C -28.601562 99.046875 -30.457031 99.046875 -29.925781 97.191406 Z M -187.234375 92.160156 C -186.96875 92.691406 -186.707031 93.21875 -186.96875 93.75 C -187.234375 94.28125 -188.292969 95.074219 -189.089844 96.132812 C -188.824219 94.542969 -188.824219 93.484375 -188.558594 92.691406 C -188.558594 92.425781 -187.765625 92.425781 -187.234375 92.160156 Z M -178.761719 92.691406 C -178.496094 93.75 -177.703125 95.339844 -177.964844 95.605469 C -179.027344 96.132812 -180.351562 96.132812 -181.410156 94.28125 C -180.351562 93.75 -179.820312 93.21875 -178.761719 92.691406 Z M -182.46875 91.632812 L -184.320312 95.339844 C -184.851562 92.160156 -184.585938 91.101562 -182.46875 91.632812 Z M -28.070312 89.777344 C -27.808594 90.042969 -28.070312 91.632812 -28.601562 91.894531 C -30.191406 92.691406 -30.71875 91.632812 -31.25 90.308594 C -30.191406 89.511719 -28.867188 88.453125 -28.070312 89.777344 Z M -181.410156 87.128906 C -180.085938 88.1875 -179.289062 88.453125 -178.496094 88.984375 C -178.230469 89.246094 -177.964844 89.777344 -177.964844 90.042969 C -178.230469 90.570312 -178.761719 91.101562 -179.289062 91.101562 C -180.085938 91.632812 -181.144531 91.101562 -182.203125 91.101562 Z M -174.789062 83.953125 C -175.054688 85.539062 -175.054688 86.863281 -175.316406 88.1875 C -176.90625 86.070312 -176.90625 85.539062 -174.789062 83.953125 Z M -24.363281 82.628906 C -23.835938 83.6875 -23.304688 85.277344 -22.246094 86.597656 C -23.304688 86.597656 -24.097656 86.863281 -24.628906 86.597656 C -25.953125 85.277344 -24.894531 83.6875 -24.363281 82.628906 Z M -182.996094 81.566406 C -182.996094 84.746094 -184.320312 86.597656 -186.441406 86.070312 C -186.707031 83.6875 -184.320312 83.15625 -182.996094 81.566406 Z M -174.257812 74.152344 C -172.667969 74.152344 -172.140625 74.945312 -172.667969 76.007812 C -173.992188 77.59375 -173.730469 78.65625 -172.40625 79.714844 C -172.40625 79.714844 -172.40625 79.980469 -172.667969 80.242188 C -173.199219 80.507812 -173.992188 80.507812 -174.789062 80.507812 C -174.523438 78.390625 -174.523438 76.269531 -174.257812 74.152344 Z M -19.597656 75.742188 C -19.332031 75.742188 -18.539062 76.007812 -18.273438 76.269531 L -21.453125 79.714844 C -21.714844 79.980469 -22.246094 79.980469 -22.777344 79.980469 C -23.570312 79.449219 -24.363281 78.65625 -24.628906 77.859375 C -24.894531 77.59375 -23.835938 76.007812 -23.304688 76.007812 C -21.714844 76.269531 -20.65625 76.800781 -19.597656 75.742188 Z M -32.042969 74.945312 C -29.394531 73.886719 -28.601562 75.476562 -27.542969 76.269531 C -27.277344 76.269531 -27.542969 76.800781 -27.808594 77.332031 C -27.808594 77.59375 -28.335938 77.59375 -28.335938 77.59375 C -29.394531 76.535156 -30.71875 75.742188 -32.042969 74.945312 Z M -32.042969 70.445312 C -31.515625 70.972656 -30.984375 71.238281 -30.71875 71.769531 C -30.71875 72.035156 -31.515625 72.5625 -32.042969 73.359375 C -32.574219 72.5625 -33.367188 72.035156 -33.367188 71.769531 C -32.839844 71.238281 -32.308594 70.972656 -32.042969 70.445312 Z M -27.542969 67.796875 L -25.6875 70.445312 C -26.746094 70.710938 -27.542969 70.972656 -28.867188 71.769531 C -28.601562 69.914062 -28.335938 68.855469 -28.335938 67.796875 Z M -178.761719 67.53125 L -178.230469 68.328125 L -180.878906 70.710938 C -181.144531 70.710938 -181.9375 70.710938 -181.9375 70.445312 C -181.9375 69.914062 -181.9375 69.121094 -181.671875 68.855469 C -180.878906 68.328125 -179.554688 68.0625 -178.761719 67.53125 Z M -190.679688 65.941406 C -188.03125 65.679688 -188.03125 65.941406 -188.824219 68.589844 Z M -23.835938 64.617188 L -29.394531 65.414062 C -29.132812 62.765625 -27.011719 62.5 -23.835938 64.617188 Z M -19.863281 63.292969 L -19.597656 63.558594 C -19.863281 64.089844 -19.863281 64.882812 -20.390625 65.148438 C -20.65625 65.414062 -21.453125 64.882812 -21.980469 64.617188 L -21.980469 64.089844 Z M -29.925781 51.113281 C -30.191406 51.640625 -30.191406 52.171875 -30.457031 52.4375 C -32.574219 54.554688 -34.957031 54.554688 -37.339844 54.820312 C -37.605469 54.820312 -37.871094 53.761719 -38.136719 53.761719 C -35.488281 52.964844 -33.367188 51.90625 -31.25 51.113281 Z M -165.519531 49.257812 C -164.988281 51.90625 -165.519531 54.289062 -167.371094 54.820312 C -167.636719 54.820312 -168.695312 54.027344 -168.695312 54.027344 C -167.902344 52.171875 -166.84375 50.847656 -165.519531 49.257812 Z M -41.046875 42.371094 C -40.785156 42.371094 -40.519531 42.636719 -40.519531 42.902344 C -40.519531 43.167969 -40.785156 43.433594 -41.046875 43.960938 C -41.3125 44.492188 -42.109375 45.285156 -42.109375 46.082031 C -41.84375 47.140625 -42.109375 47.933594 -43.167969 48.199219 C -43.960938 48.199219 -44.757812 47.40625 -45.285156 47.140625 L -41.84375 42.902344 Z M -175.316406 43.433594 L -171.609375 47.140625 C -174.523438 46.875 -175.316406 46.082031 -175.316406 43.433594 Z M -157.308594 41.578125 L -157.308594 42.636719 L -159.164062 43.695312 C -159.957031 43.695312 -160.488281 43.433594 -160.753906 43.167969 C -160.753906 42.902344 -160.488281 41.84375 -160.222656 41.84375 C -159.164062 41.578125 -158.367188 41.578125 -157.308594 41.578125 Z M -161.28125 34.429688 C -160.753906 35.222656 -159.957031 36.015625 -159.691406 36.8125 C -159.164062 36.8125 -160.222656 37.605469 -160.488281 37.871094 L -162.605469 35.753906 C -162.078125 35.222656 -161.546875 34.429688 -161.28125 34.429688 Z M -48.730469 34.429688 C -47.933594 34.691406 -46.875 35.753906 -46.34375 36.546875 L -48.464844 37.605469 L -50.847656 35.753906 C -50.054688 35.222656 -49.257812 34.164062 -48.730469 34.429688 Z M -145.65625 30.984375 C -145.65625 30.984375 -145.128906 31.25 -145.128906 31.78125 L -146.453125 32.839844 C -147.246094 32.839844 -147.777344 32.574219 -148.570312 32.574219 L -148.570312 31.78125 C -147.511719 31.25 -146.714844 30.984375 -145.65625 30.984375 Z M -151.484375 25.953125 L -151.484375 30.71875 C -154.132812 28.867188 -154.132812 27.277344 -151.484375 25.953125 Z M -65.941406 22.511719 C -65.679688 22.511719 -65.148438 22.511719 -65.148438 22.777344 C -63.558594 24.363281 -63.292969 24.363281 -61.96875 23.039062 C -61.707031 22.777344 -60.644531 22.777344 -60.382812 22.777344 C -59.058594 23.835938 -57.996094 25.160156 -56.671875 26.21875 C -56.410156 26.746094 -56.410156 27.277344 -56.144531 28.601562 L -60.644531 25.6875 C -61.707031 26.484375 -63.03125 26.746094 -61.96875 28.601562 C -61.707031 28.867188 -62.234375 29.660156 -62.5 29.925781 C -62.5 30.191406 -63.292969 30.191406 -63.292969 30.191406 C -63.558594 29.660156 -63.558594 29.132812 -63.824219 28.867188 C -64.089844 28.335938 -64.089844 27.011719 -64.355469 27.011719 C -67.003906 26.746094 -65.679688 24.363281 -66.472656 23.304688 C -66.472656 23.039062 -66.207031 22.511719 -65.941406 22.511719 Z M -73.09375 25.421875 C -72.035156 25.6875 -70.972656 26.21875 -70.179688 26.746094 C -71.238281 28.867188 -72.828125 27.808594 -73.886719 27.011719 C -74.152344 27.011719 -74.417969 26.21875 -74.152344 25.953125 C -73.886719 25.6875 -73.359375 25.421875 -73.09375 25.421875 Z M -127.382812 24.363281 C -127.117188 25.421875 -126.589844 26.484375 -126.058594 27.277344 L -126.589844 27.808594 C -127.117188 27.542969 -128.707031 27.542969 -128.707031 27.277344 L -128.441406 24.363281 Z M -135.859375 18.007812 C -133.738281 21.1875 -133.738281 21.453125 -136.386719 23.039062 L -138.242188 25.421875 C -139.832031 24.097656 -139.300781 22.777344 -137.976562 22.246094 C -137.183594 21.714844 -136.652344 21.1875 -136.917969 19.863281 C -136.917969 19.332031 -136.121094 18.539062 -135.859375 18.007812 Z M -83.6875 20.390625 C -83.421875 21.1875 -83.421875 21.714844 -83.421875 22.511719 C -84.480469 22.511719 -85.539062 22.511719 -86.863281 22.246094 L -86.863281 20.390625 Z M -141.417969 17.214844 C -140.359375 18.273438 -139.300781 19.066406 -137.976562 19.597656 C -137.976562 21.453125 -139.300781 21.714844 -140.359375 21.1875 C -141.683594 20.390625 -141.683594 19.066406 -141.417969 17.214844 Z M -146.453125 18.273438 L -145.921875 19.066406 C -146.980469 19.597656 -148.039062 20.128906 -148.835938 21.1875 C -149.363281 20.390625 -149.628906 20.128906 -149.628906 19.863281 Z M -125.792969 16.417969 C -125.265625 17.742188 -125 18.539062 -124.207031 19.332031 C -125.53125 19.597656 -126.324219 20.128906 -127.382812 20.390625 C -127.382812 20.390625 -127.648438 20.128906 -127.648438 19.863281 Z M -110.964844 16.15625 C -110.167969 16.15625 -109.375 16.683594 -109.375 16.949219 C -109.640625 18.539062 -110.699219 19.066406 -112.023438 18.539062 C -112.554688 17.214844 -112.289062 16.417969 -110.964844 16.15625 Z M -122.617188 11.917969 C -121.820312 12.183594 -120.761719 12.710938 -120.234375 12.976562 C -120.761719 13.507812 -121.558594 14.300781 -122.085938 14.566406 L -123.410156 12.445312 Z M -80.242188 11.121094 C -81.566406 13.507812 -81.832031 13.507812 -83.6875 13.507812 C -83.953125 11.386719 -83.421875 10.859375 -80.242188 11.121094 Z M -109.640625 7.679688 C -107.785156 6.355469 -106.195312 7.414062 -104.871094 11.121094 C -107.519531 11.386719 -109.109375 9.796875 -109.640625 7.679688 Z M -113.347656 6.089844 C -111.757812 8.738281 -114.9375 9.003906 -115.203125 10.859375 C -115.730469 9.796875 -116.261719 9.535156 -117.054688 8.738281 C -115.730469 7.945312 -114.671875 7.152344 -113.347656 6.089844 Z M -113.347656 6.089844 "/></g></g></g><g fill="#ff3131" fill-opacity="1"><g transform="translate(191.738194, 202.135614)"><g><path d="M -15.625 -1.324219 C -21.714844 0.53125 -27.808594 -0.265625 -34.429688 0 C -35.488281 0 -36.546875 -0.265625 -37.605469 -0.792969 C -40.253906 -1.589844 -42.371094 -1.589844 -44.492188 0.265625 C -46.082031 2.382812 -46.609375 4.238281 -45.816406 7.152344 C -45.019531 10.0625 -44.492188 13.242188 -44.226562 16.417969 L -44.226562 58.527344 C -44.226562 59.058594 -44.226562 59.585938 -44.492188 60.644531 C -45.285156 60.117188 -45.550781 60.117188 -45.816406 59.851562 C -61.96875 46.082031 -77.59375 32.308594 -93.484375 18.539062 C -99.046875 13.507812 -104.871094 8.210938 -110.433594 2.914062 C -113.613281 -0.265625 -117.320312 -1.058594 -121.820312 -0.53125 C -124.46875 -0.265625 -126.855469 0 -129.503906 0 L -158.898438 0 C -161.015625 0 -163.136719 -0.53125 -165.253906 -0.265625 L -165.253906 3.179688 C -129.765625 33.898438 -95.074219 63.558594 -59.851562 93.75 C -65.941406 98.78125 -72.035156 104.078125 -77.59375 109.109375 C -89.511719 119.703125 -101.695312 130.296875 -113.878906 140.890625 C -126.855469 152.542969 -139.832031 164.195312 -153.335938 175.582031 C -155.984375 177.703125 -163.929688 183.792969 -164.195312 183.792969 C -162.078125 188.292969 -160.753906 188.558594 -156.25 186.707031 C -153.335938 185.644531 -150.160156 185.117188 -147.246094 185.382812 L -145.390625 185.382812 C -136.121094 185.644531 -126.589844 184.851562 -117.320312 185.910156 C -112.023438 186.707031 -107.785156 184.851562 -105.136719 180.351562 C -104.609375 179.554688 -103.285156 178.496094 -102.753906 177.964844 C -95.867188 171.875 -88.453125 166.046875 -81.566406 159.691406 C -70.179688 149.628906 -58.792969 139.300781 -47.140625 129.238281 C -46.34375 128.441406 -45.550781 127.914062 -44.226562 126.589844 L -44.226562 167.109375 C -44.226562 171.34375 -44.226562 175.316406 -45.816406 179.027344 C -46.875 181.410156 -46.34375 183.261719 -44.492188 185.382812 C -42.636719 186.96875 -40.785156 186.707031 -38.664062 185.910156 C -37.078125 185.644531 -36.015625 185.117188 -34.691406 185.117188 C -28.335938 185.117188 -21.980469 184.585938 -15.890625 186.175781 C -11.121094 187.5 -6.886719 182.996094 -8.472656 178.230469 C -9.535156 175.316406 -10.0625 171.875 -9.796875 168.433594 C -9.535156 157.574219 -9.535156 146.980469 -9.269531 135.859375 C -9.269531 130.828125 -9.796875 125.53125 -9.796875 120.496094 L -9.796875 101.429688 C -9.796875 95.605469 -9.535156 90.042969 -9.269531 83.953125 C -9.269531 80.242188 -9.796875 76.800781 -9.796875 73.09375 C -9.796875 53.496094 -9.535156 33.898438 -9.269531 14.035156 C -9.269531 11.652344 -8.738281 9.003906 -8.210938 6.886719 C -6.886719 1.855469 -10.59375 -2.648438 -15.625 -1.324219 Z M -26.746094 170.550781 C -24.894531 171.34375 -23.304688 171.609375 -21.714844 172.140625 C -22.777344 175.847656 -25.421875 173.464844 -27.277344 174.523438 C -27.011719 172.933594 -27.011719 171.875 -26.746094 170.550781 Z M -35.222656 159.164062 C -34.957031 159.164062 -34.691406 159.691406 -34.429688 160.222656 C -34.957031 160.488281 -35.222656 161.015625 -35.753906 160.753906 C -36.015625 160.753906 -36.28125 160.222656 -37.078125 159.429688 C -36.015625 159.164062 -35.753906 158.898438 -35.222656 159.164062 Z M -94.28125 155.71875 L -92.425781 156.78125 C -92.691406 157.042969 -92.691406 157.574219 -92.957031 157.839844 C -93.484375 157.308594 -94.28125 156.78125 -95.074219 156.25 Z M -96.929688 154.925781 C -98.253906 156.515625 -99.578125 155.984375 -101.164062 155.191406 C -99.578125 153.601562 -98.253906 153.335938 -96.929688 154.925781 Z M -95.605469 146.1875 C -94.808594 146.714844 -93.75 147.246094 -92.957031 147.511719 C -91.367188 147.246094 -89.511719 146.980469 -88.1875 146.453125 C -87.921875 146.980469 -87.660156 147.246094 -87.394531 147.511719 L -90.042969 151.484375 C -90.835938 149.894531 -91.367188 149.363281 -91.632812 148.570312 C -95.605469 150.160156 -96.132812 149.894531 -95.605469 146.1875 Z M -34.691406 144.597656 L -34.691406 145.390625 C -35.753906 145.390625 -36.8125 145.65625 -38.136719 146.1875 L -38.136719 144.597656 Z M -23.835938 140.359375 C -22.246094 141.683594 -22.511719 143.273438 -23.304688 144.597656 C -24.628906 146.1875 -25.953125 145.65625 -27.277344 144.863281 C -25.953125 143.273438 -25.160156 141.949219 -23.835938 140.359375 Z M -36.28125 140.359375 C -34.691406 139.566406 -34.164062 140.359375 -33.898438 141.15625 L -34.429688 141.949219 C -34.957031 141.15625 -35.488281 140.890625 -36.28125 140.359375 Z M -31.25 136.917969 L -31.25 139.300781 C -32.839844 139.566406 -32.839844 139.035156 -31.25 136.917969 Z M -34.164062 130.828125 C -33.898438 134.003906 -34.429688 134.535156 -37.605469 134.269531 C -36.015625 132.945312 -35.222656 132.152344 -34.164062 130.828125 Z M -25.421875 128.972656 C -24.097656 128.972656 -23.304688 128.972656 -22.246094 129.238281 L -22.246094 129.765625 C -23.304688 130.03125 -24.894531 130.5625 -25.953125 131.089844 C -26.746094 131.355469 -27.277344 131.621094 -28.070312 132.152344 C -29.394531 132.152344 -30.71875 131.621094 -30.457031 130.296875 C -30.457031 128.972656 -29.394531 128.441406 -27.808594 128.972656 C -27.011719 129.238281 -26.21875 128.972656 -25.421875 128.972656 Z M -73.359375 125.792969 C -72.035156 124.207031 -70.710938 124.734375 -69.652344 126.324219 C -71.769531 128.179688 -72.5625 127.117188 -73.359375 125.792969 Z M -21.453125 125.265625 C -20.921875 125.53125 -20.390625 126.058594 -19.863281 126.589844 L -20.390625 127.117188 C -20.921875 126.855469 -21.453125 126.324219 -22.246094 126.058594 Z M -61.96875 121.558594 C -61.96875 121.558594 -60.910156 122.085938 -61.175781 122.351562 C -61.175781 122.882812 -61.441406 123.144531 -62.234375 123.410156 C -62.234375 123.675781 -62.5 123.144531 -63.03125 122.882812 C -62.5 122.085938 -62.234375 121.820312 -61.96875 121.558594 Z M -64.617188 113.613281 C -63.292969 116.261719 -63.292969 116.261719 -65.941406 118.644531 Z M -21.1875 105.136719 C -22.511719 107.785156 -23.570312 110.433594 -24.894531 113.082031 C -25.160156 113.082031 -25.421875 112.816406 -25.6875 112.816406 C -25.6875 112.289062 -26.21875 111.230469 -25.953125 110.699219 C -24.628906 109.375 -25.421875 108.316406 -27.277344 106.726562 C -24.097656 106.992188 -23.304688 104.34375 -21.1875 105.136719 Z M -20.65625 109.640625 C -20.390625 109.640625 -19.863281 110.167969 -20.128906 110.433594 C -20.128906 110.699219 -20.390625 110.964844 -20.921875 111.757812 C -21.1875 110.964844 -21.714844 110.699219 -21.714844 110.433594 Z M -57.46875 109.109375 C -54.027344 106.992188 -54.027344 106.992188 -52.703125 109.375 C -54.027344 109.109375 -55.347656 109.109375 -57.46875 109.109375 Z M -41.3125 98.78125 L -41.84375 105.933594 C -43.695312 105.402344 -44.757812 104.609375 -44.757812 103.285156 C -44.492188 101.695312 -43.695312 99.839844 -41.3125 98.78125 Z M -53.761719 96.398438 L -49.257812 97.457031 C -51.113281 100.371094 -51.113281 100.371094 -53.761719 96.398438 Z M -21.1875 94.015625 L -21.980469 98.515625 C -23.570312 95.867188 -23.570312 95.867188 -21.1875 94.015625 Z M -37.078125 88.984375 C -33.898438 90.835938 -34.429688 93.21875 -34.957031 95.605469 C -35.488281 97.722656 -37.605469 98.515625 -40.253906 97.988281 C -39.195312 97.191406 -37.871094 96.664062 -36.8125 95.867188 C -38.929688 93.484375 -36.8125 91.632812 -37.078125 88.984375 Z M -31.515625 94.015625 C -30.984375 94.28125 -30.71875 94.808594 -30.457031 95.074219 L -30.457031 96.398438 C -30.71875 96.664062 -30.71875 96.664062 -30.984375 96.664062 C -31.25 95.867188 -31.78125 95.339844 -32.042969 94.28125 C -31.78125 94.28125 -31.515625 94.28125 -31.515625 94.015625 Z M -43.695312 86.335938 C -43.433594 87.128906 -42.636719 87.921875 -42.109375 89.511719 C -43.960938 89.511719 -44.757812 89.511719 -46.082031 89.246094 C -45.285156 87.921875 -44.492188 87.128906 -43.695312 86.335938 Z M -34.691406 87.660156 C -34.429688 87.921875 -34.164062 88.1875 -33.367188 88.453125 C -33.898438 88.71875 -33.898438 88.984375 -34.164062 88.984375 C -34.429688 88.984375 -34.957031 88.984375 -35.488281 88.71875 C -35.222656 88.1875 -34.957031 87.660156 -34.691406 87.660156 Z M -35.222656 83.953125 L -34.691406 84.746094 C -36.015625 85.539062 -37.078125 86.070312 -38.664062 86.335938 C -38.664062 86.070312 -38.664062 86.070312 -38.929688 85.804688 Z M -50.054688 82.890625 C -49.257812 83.953125 -48.730469 84.746094 -47.40625 86.335938 L -51.640625 86.335938 C -51.113281 85.011719 -50.847656 84.214844 -50.054688 82.890625 Z M -41.84375 82.097656 C -41.578125 82.628906 -41.046875 82.890625 -41.046875 83.15625 C -40.785156 83.421875 -41.3125 83.953125 -41.84375 84.480469 C -42.109375 83.6875 -42.636719 83.421875 -42.636719 83.15625 C -42.636719 82.890625 -42.109375 82.628906 -41.84375 82.097656 Z M -33.367188 79.980469 C -32.308594 80.242188 -30.984375 80.773438 -29.660156 80.773438 C -31.25 82.890625 -32.574219 82.890625 -33.898438 81.304688 C -33.898438 81.039062 -33.898438 80.242188 -33.367188 79.980469 Z M -42.902344 75.210938 C -42.371094 76.269531 -41.3125 77.59375 -40.519531 78.65625 C -43.960938 82.097656 -46.34375 82.890625 -49.789062 80.773438 C -47.40625 78.65625 -45.285156 77.066406 -42.902344 75.210938 Z M -19.863281 74.683594 C -18.007812 73.359375 -17.214844 74.152344 -16.683594 75.210938 C -16.417969 76.007812 -16.949219 76.800781 -16.949219 77.332031 C -17.742188 77.332031 -18.539062 77.066406 -18.804688 76.800781 C -19.332031 76.269531 -19.332031 75.210938 -19.863281 74.683594 Z M -37.078125 73.621094 C -36.8125 73.621094 -36.546875 74.152344 -36.28125 74.417969 C -36.546875 74.417969 -36.8125 74.683594 -37.339844 74.945312 L -38.136719 74.152344 C -37.605469 73.886719 -37.339844 73.621094 -37.078125 73.621094 Z M -27.542969 68.328125 L -24.894531 70.179688 C -26.21875 71.503906 -27.542969 72.5625 -28.867188 73.621094 C -29.394531 73.359375 -29.394531 73.359375 -29.660156 73.359375 C -28.867188 71.769531 -28.335938 70.179688 -27.542969 68.328125 Z M -24.894531 67.265625 C -23.039062 65.148438 -22.246094 65.414062 -21.453125 67.796875 C -22.511719 67.53125 -23.570312 67.53125 -24.894531 67.265625 Z M -21.453125 58.527344 C -20.921875 59.320312 -20.128906 59.851562 -20.128906 60.382812 C -20.390625 62.234375 -21.980469 62.765625 -23.835938 62.5 C -23.039062 61.175781 -22.511719 60.117188 -21.453125 58.527344 Z M -74.417969 51.90625 C -73.886719 52.964844 -73.359375 53.496094 -72.296875 54.554688 C -74.683594 54.820312 -74.945312 53.761719 -74.417969 51.90625 Z M -91.101562 47.140625 C -88.71875 47.40625 -88.453125 48.464844 -89.246094 50.316406 C -90.042969 48.992188 -90.570312 48.464844 -91.101562 47.140625 Z M -83.953125 45.550781 C -83.15625 48.199219 -83.953125 48.730469 -86.863281 47.933594 C -85.539062 46.609375 -84.746094 46.34375 -83.953125 45.550781 Z M -100.902344 42.371094 C -100.105469 42.636719 -99.578125 42.371094 -99.578125 42.636719 C -99.046875 43.695312 -98.78125 44.492188 -98.515625 45.285156 C -99.046875 45.550781 -99.578125 45.550781 -99.839844 45.550781 Z M -110.433594 41.578125 C -110.699219 43.695312 -110.699219 43.695312 -112.554688 42.902344 Z M -20.390625 35.222656 C -19.066406 37.605469 -21.1875 38.929688 -22.246094 40.519531 C -22.777344 39.722656 -23.039062 38.929688 -23.835938 37.605469 C -22.511719 36.8125 -21.714844 36.015625 -20.390625 35.222656 Z M -103.546875 27.808594 C -100.902344 28.601562 -98.78125 29.660156 -96.664062 30.457031 L -99.578125 34.691406 L -96.132812 35.753906 C -95.867188 37.339844 -96.929688 39.195312 -99.578125 40.253906 C -99.578125 39.195312 -99.578125 37.871094 -99.839844 36.8125 C -100.105469 36.015625 -100.105469 34.957031 -100.902344 34.691406 C -103.285156 33.105469 -102.488281 30.71875 -103.546875 27.808594 Z M -34.691406 34.957031 C -33.367188 35.488281 -32.574219 36.015625 -32.042969 36.28125 C -32.308594 36.8125 -32.308594 37.605469 -32.839844 37.605469 C -34.429688 37.871094 -34.691406 37.078125 -34.691406 34.957031 Z M -29.394531 30.191406 C -28.335938 31.78125 -28.070312 32.042969 -28.070312 32.308594 C -28.335938 32.574219 -28.867188 32.839844 -29.394531 32.839844 C -29.660156 32.839844 -29.925781 32.574219 -29.925781 32.308594 C -29.925781 31.78125 -29.660156 31.25 -29.394531 30.191406 Z M -29.925781 23.835938 C -28.867188 24.894531 -26.21875 24.628906 -27.542969 27.277344 C -28.867188 26.484375 -29.925781 25.6875 -29.925781 23.835938 Z M -114.9375 23.570312 C -113.878906 26.484375 -114.9375 26.746094 -117.054688 26.21875 C -116.261719 25.421875 -115.730469 24.628906 -114.9375 23.570312 Z M -109.640625 20.65625 C -109.375 20.921875 -108.84375 21.1875 -108.316406 21.714844 C -109.109375 22.511719 -109.90625 23.304688 -110.699219 23.835938 C -110.964844 23.835938 -110.964844 23.570312 -111.230469 23.570312 Z M -127.117188 21.980469 C -128.972656 22.246094 -130.03125 22.246094 -131.355469 22.511719 C -130.03125 20.65625 -130.03125 20.65625 -127.117188 21.980469 Z M -113.613281 14.300781 C -113.082031 14.832031 -112.816406 15.359375 -112.816406 15.625 C -113.878906 16.15625 -114.671875 16.417969 -115.464844 16.949219 L -115.996094 15.890625 Z M -31.78125 12.183594 C -30.191406 9.796875 -29.660156 11.917969 -28.335938 12.445312 C -27.277344 13.242188 -26.21875 13.507812 -25.160156 14.035156 C -28.070312 16.15625 -28.070312 16.15625 -31.78125 12.183594 Z M -118.910156 11.386719 C -118.644531 11.386719 -118.378906 12.445312 -118.644531 12.976562 C -119.4375 14.035156 -120.496094 13.769531 -121.292969 12.710938 C -121.027344 11.652344 -120.496094 10.59375 -118.910156 11.386719 Z M -118.910156 11.386719 "/></g></g></g></svg>